<mxfile host="Electron" agent="Mozilla/5.0 (Macintosh; Intel Mac OS X 10_15_7) AppleWebKit/537.36 (KHTML, like Gecko) draw.io/24.7.17 Chrome/128.0.6613.36 Electron/32.0.1 Safari/537.36" version="24.7.17" pages="2">
  <diagram name="main" id="vdV72FHW6scpRiuXRKxx">
    <mxGraphModel dx="694" dy="395" grid="1" gridSize="10" guides="1" tooltips="1" connect="1" arrows="1" fold="1" page="1" pageScale="1" pageWidth="1100" pageHeight="850" math="0" shadow="0">
      <root>
        <mxCell id="0" />
        <mxCell id="1" parent="0" />
        <mxCell id="z_RlsAV90lugBiamIVYU-6" style="edgeStyle=orthogonalEdgeStyle;rounded=1;orthogonalLoop=1;jettySize=auto;html=1;exitX=1;exitY=0.5;exitDx=0;exitDy=0;exitPerimeter=0;strokeWidth=2;curved=0;entryX=0;entryY=0.5;entryDx=0;entryDy=0;entryPerimeter=0;" parent="1" source="z_RlsAV90lugBiamIVYU-1" target="z_RlsAV90lugBiamIVYU-8" edge="1">
          <mxGeometry relative="1" as="geometry" />
        </mxCell>
        <mxCell id="z_RlsAV90lugBiamIVYU-1" value="" style="rhombus;whiteSpace=wrap;html=1;rounded=1;fontStyle=1;glass=0;sketch=0;fontSize=12;points=[[0,0.5,0,0,0],[0.5,0,0,0,0],[0.5,1,0,0,0],[1,0.5,0,0,0]];shadow=1;fontFamily=Helvetica;fontColor=default;" parent="1" vertex="1">
          <mxGeometry x="40" y="120" width="40" height="40" as="geometry" />
        </mxCell>
        <mxCell id="z_RlsAV90lugBiamIVYU-2" value="latch" style="rounded=1;whiteSpace=wrap;html=1;container=1;recursiveResize=0;verticalAlign=top;arcSize=6;fontStyle=1;autosize=0;points=[];absoluteArcSize=1;shadow=1;strokeColor=#6c8ebf;fillColor=#dae8fc;fontFamily=Helvetica;fontSize=11;gradientColor=#0050EF;fontColor=default;" parent="1" vertex="1">
          <mxGeometry x="330" y="110" width="90" height="100" as="geometry">
            <mxRectangle x="-98" y="-1230" width="99" height="26" as="alternateBounds" />
          </mxGeometry>
        </mxCell>
        <mxCell id="z_RlsAV90lugBiamIVYU-3" value="" style="rounded=1;whiteSpace=wrap;html=1;sketch=0;points=[[0,0.5,0,0,0],[1,0.5,0,0,0]];arcSize=50;fontFamily=Helvetica;fontSize=11;fontColor=default;" parent="z_RlsAV90lugBiamIVYU-2" vertex="1">
          <mxGeometry x="-16.75" y="27.5" width="36.75" height="25" as="geometry" />
        </mxCell>
        <mxCell id="z_RlsAV90lugBiamIVYU-4" value="" style="rounded=1;whiteSpace=wrap;html=1;sketch=0;points=[[0,0.5,0,0,0],[1,0.5,0,0,0]];fillColor=#1ba1e2;fontColor=#ffffff;strokeColor=#006EAF;arcSize=50;fontFamily=Helvetica;fontSize=11;" parent="z_RlsAV90lugBiamIVYU-2" vertex="1">
          <mxGeometry x="70" y="27.5" width="36" height="25" as="geometry" />
        </mxCell>
        <mxCell id="bfKZQ8qEBdSeZriL1eLt-1" value="release" style="rounded=1;whiteSpace=wrap;html=1;sketch=0;points=[[0,0.5,0,0,0],[1,0.5,0,0,0]];arcSize=50;fontFamily=Helvetica;fontSize=11;fontColor=default;" vertex="1" parent="z_RlsAV90lugBiamIVYU-2">
          <mxGeometry x="-16.75" y="60" width="36.75" height="25" as="geometry" />
        </mxCell>
        <mxCell id="z_RlsAV90lugBiamIVYU-7" value="stimulus" style="rounded=1;whiteSpace=wrap;html=1;container=1;recursiveResize=0;verticalAlign=top;arcSize=6;fontStyle=1;autosize=0;points=[];absoluteArcSize=1;shadow=1;strokeColor=#666666;fillColor=#f5f5f5;fontFamily=Helvetica;fontSize=11;fontColor=#333333;" parent="1" vertex="1">
          <mxGeometry x="160" y="100" width="90" height="120" as="geometry">
            <mxRectangle x="-98" y="-1230" width="99" height="26" as="alternateBounds" />
          </mxGeometry>
        </mxCell>
        <mxCell id="z_RlsAV90lugBiamIVYU-8" value="" style="rounded=1;whiteSpace=wrap;html=1;sketch=0;points=[[0,0.5,0,0,0],[1,0.5,0,0,0]];arcSize=50;fontFamily=Helvetica;fontSize=11;fontColor=default;" parent="z_RlsAV90lugBiamIVYU-7" vertex="1">
          <mxGeometry x="-16.75" y="27.5" width="36.75" height="25" as="geometry" />
        </mxCell>
        <mxCell id="9XuPy-yzw9BXAMB755ca-12" value="c" style="rounded=1;whiteSpace=wrap;html=1;sketch=0;points=[[0,0.5,0,0,0],[1,0.5,0,0,0]];fillColor=#1ba1e2;fontColor=#ffffff;strokeColor=#006EAF;arcSize=50;fontFamily=Helvetica;fontSize=11;" parent="z_RlsAV90lugBiamIVYU-7" vertex="1">
          <mxGeometry x="70" y="37.5" width="36" height="25" as="geometry" />
        </mxCell>
        <mxCell id="bfKZQ8qEBdSeZriL1eLt-2" value="rel" style="rounded=1;whiteSpace=wrap;html=1;sketch=0;points=[[0,0.5,0,0,0],[1,0.5,0,0,0]];fillColor=#1ba1e2;fontColor=#ffffff;strokeColor=#006EAF;arcSize=50;fontFamily=Helvetica;fontSize=11;" vertex="1" parent="z_RlsAV90lugBiamIVYU-7">
          <mxGeometry x="70" y="70" width="36" height="25" as="geometry" />
        </mxCell>
        <mxCell id="z_RlsAV90lugBiamIVYU-11" style="edgeStyle=orthogonalEdgeStyle;rounded=1;orthogonalLoop=1;jettySize=auto;html=1;exitX=1;exitY=0.5;exitDx=0;exitDy=0;exitPerimeter=0;strokeWidth=2;curved=0;entryX=0;entryY=0.5;entryDx=0;entryDy=0;entryPerimeter=0;" parent="1" source="z_RlsAV90lugBiamIVYU-4" target="h-TPDaDMY3J2v0t6yBBa-1" edge="1">
          <mxGeometry relative="1" as="geometry">
            <Array as="points">
              <mxPoint x="470" y="150" />
              <mxPoint x="470" y="150" />
            </Array>
          </mxGeometry>
        </mxCell>
        <mxCell id="ZWu5ie66i4GKL29yOKYd-1" style="edgeStyle=orthogonalEdgeStyle;rounded=1;orthogonalLoop=1;jettySize=auto;html=1;exitX=1;exitY=0.5;exitDx=0;exitDy=0;exitPerimeter=0;entryX=0;entryY=0.5;entryDx=0;entryDy=0;entryPerimeter=0;curved=0;strokeWidth=2;" parent="1" source="9XuPy-yzw9BXAMB755ca-12" target="z_RlsAV90lugBiamIVYU-3" edge="1">
          <mxGeometry relative="1" as="geometry" />
        </mxCell>
        <mxCell id="h-TPDaDMY3J2v0t6yBBa-1" value="" style="rhombus;whiteSpace=wrap;html=1;rounded=1;fontStyle=1;glass=0;sketch=0;fontSize=12;points=[[0,0.5,0,0,0],[0.5,0,0,0,0],[0.5,1,0,0,0],[1,0.5,0,0,0]];shadow=1;fillColor=#0050ef;fontColor=#ffffff;strokeColor=#001DBC;fontFamily=Helvetica;" vertex="1" parent="1">
          <mxGeometry x="480" y="130" width="40" height="40" as="geometry" />
        </mxCell>
        <mxCell id="bfKZQ8qEBdSeZriL1eLt-3" style="edgeStyle=orthogonalEdgeStyle;rounded=1;orthogonalLoop=1;jettySize=auto;html=1;exitX=1;exitY=0.5;exitDx=0;exitDy=0;exitPerimeter=0;entryX=0;entryY=0.5;entryDx=0;entryDy=0;entryPerimeter=0;curved=0;strokeWidth=2;" edge="1" parent="1" source="bfKZQ8qEBdSeZriL1eLt-2" target="bfKZQ8qEBdSeZriL1eLt-1">
          <mxGeometry relative="1" as="geometry" />
        </mxCell>
      </root>
    </mxGraphModel>
  </diagram>
  <diagram id="1FmnR6fm7Mp43u_ceBDR" name="stimulus">
    <mxGraphModel dx="694" dy="395" grid="1" gridSize="10" guides="1" tooltips="1" connect="1" arrows="1" fold="1" page="1" pageScale="1" pageWidth="1100" pageHeight="850" math="0" shadow="0">
      <root>
        <mxCell id="0" />
        <mxCell id="1" parent="0" />
        <mxCell id="mFdd-6OuLEnrnBaM5S1W-2" value="" style="rhombus;whiteSpace=wrap;html=1;rounded=1;fontStyle=1;glass=0;sketch=0;fontSize=12;points=[[0,0.5,0,0,0],[0.5,0,0,0,0],[0.5,1,0,0,0],[1,0.5,0,0,0]];shadow=1;fontFamily=Helvetica;fontColor=default;" vertex="1" parent="1">
          <mxGeometry x="80" y="200" width="40" height="40" as="geometry" />
        </mxCell>
        <mxCell id="mFdd-6OuLEnrnBaM5S1W-3" value="&#39;X" style="rounded=1;whiteSpace=wrap;html=1;container=1;recursiveResize=0;verticalAlign=middle;arcSize=6;fontStyle=1;autosize=0;points=[];absoluteArcSize=1;shadow=1;strokeColor=#6c8ebf;fillColor=#dae8fc;fontFamily=Helvetica;fontSize=11;gradientColor=#E6E6E6;fontColor=default;" vertex="1" parent="1">
          <mxGeometry x="170" y="210" width="50" height="20" as="geometry">
            <mxRectangle x="-98" y="-1230" width="99" height="26" as="alternateBounds" />
          </mxGeometry>
        </mxCell>
        <mxCell id="mFdd-6OuLEnrnBaM5S1W-4" value="" style="rounded=1;whiteSpace=wrap;html=1;sketch=0;points=[[0,0.5,0,0,0],[1,0.5,0,0,0]];arcSize=50;fontFamily=Helvetica;fontSize=11;fontColor=default;" vertex="1" parent="mFdd-6OuLEnrnBaM5S1W-3">
          <mxGeometry x="40" y="3.75" width="20" height="12.5" as="geometry" />
        </mxCell>
        <mxCell id="mFdd-6OuLEnrnBaM5S1W-5" value="" style="rounded=1;whiteSpace=wrap;html=1;sketch=0;points=[[0,0.5,0,0,0],[1,0.5,0,0,0]];arcSize=50;fontFamily=Helvetica;fontSize=11;fontColor=default;" vertex="1" parent="mFdd-6OuLEnrnBaM5S1W-3">
          <mxGeometry x="-10" y="3.75" width="20" height="12.5" as="geometry" />
        </mxCell>
        <mxCell id="mFdd-6OuLEnrnBaM5S1W-6" value="&#39;Y" style="rounded=1;whiteSpace=wrap;html=1;container=1;recursiveResize=0;verticalAlign=middle;arcSize=6;fontStyle=1;autosize=0;points=[];absoluteArcSize=1;shadow=1;strokeColor=#6c8ebf;fillColor=#dae8fc;fontFamily=Helvetica;fontSize=11;gradientColor=#E6E6E6;fontColor=default;" vertex="1" parent="1">
          <mxGeometry x="270" y="210" width="50" height="20" as="geometry">
            <mxRectangle x="-98" y="-1230" width="99" height="26" as="alternateBounds" />
          </mxGeometry>
        </mxCell>
        <mxCell id="mFdd-6OuLEnrnBaM5S1W-7" value="" style="rounded=1;whiteSpace=wrap;html=1;sketch=0;points=[[0,0.5,0,0,0],[1,0.5,0,0,0]];arcSize=50;fontFamily=Helvetica;fontSize=11;fontColor=default;" vertex="1" parent="mFdd-6OuLEnrnBaM5S1W-6">
          <mxGeometry x="40" y="3.75" width="20" height="12.5" as="geometry" />
        </mxCell>
        <mxCell id="mFdd-6OuLEnrnBaM5S1W-8" value="" style="rounded=1;whiteSpace=wrap;html=1;sketch=0;points=[[0,0.5,0,0,0],[1,0.5,0,0,0]];arcSize=50;fontFamily=Helvetica;fontSize=11;fontColor=default;" vertex="1" parent="mFdd-6OuLEnrnBaM5S1W-6">
          <mxGeometry x="-10" y="3.75" width="20" height="12.5" as="geometry" />
        </mxCell>
        <mxCell id="mFdd-6OuLEnrnBaM5S1W-9" value="&#39;Z" style="rounded=1;whiteSpace=wrap;html=1;container=1;recursiveResize=0;verticalAlign=middle;arcSize=6;fontStyle=1;autosize=0;points=[];absoluteArcSize=1;shadow=1;strokeColor=#6c8ebf;fillColor=#dae8fc;fontFamily=Helvetica;fontSize=11;gradientColor=#E6E6E6;fontColor=default;" vertex="1" parent="1">
          <mxGeometry x="370" y="210" width="50" height="20" as="geometry">
            <mxRectangle x="-98" y="-1230" width="99" height="26" as="alternateBounds" />
          </mxGeometry>
        </mxCell>
        <mxCell id="mFdd-6OuLEnrnBaM5S1W-10" value="" style="rounded=1;whiteSpace=wrap;html=1;sketch=0;points=[[0,0.5,0,0,0],[1,0.5,0,0,0]];arcSize=50;fontFamily=Helvetica;fontSize=11;fontColor=default;" vertex="1" parent="mFdd-6OuLEnrnBaM5S1W-9">
          <mxGeometry x="40" y="3.75" width="20" height="12.5" as="geometry" />
        </mxCell>
        <mxCell id="mFdd-6OuLEnrnBaM5S1W-11" value="" style="rounded=1;whiteSpace=wrap;html=1;sketch=0;points=[[0,0.5,0,0,0],[1,0.5,0,0,0]];arcSize=50;fontFamily=Helvetica;fontSize=11;fontColor=default;" vertex="1" parent="mFdd-6OuLEnrnBaM5S1W-9">
          <mxGeometry x="-10" y="3.75" width="20" height="12.5" as="geometry" />
        </mxCell>
        <mxCell id="mFdd-6OuLEnrnBaM5S1W-12" style="edgeStyle=orthogonalEdgeStyle;rounded=1;orthogonalLoop=1;jettySize=auto;html=1;exitX=1;exitY=0.5;exitDx=0;exitDy=0;exitPerimeter=0;entryX=0;entryY=0.5;entryDx=0;entryDy=0;entryPerimeter=0;curved=0;strokeWidth=2;" edge="1" parent="1" source="mFdd-6OuLEnrnBaM5S1W-2" target="mFdd-6OuLEnrnBaM5S1W-5">
          <mxGeometry relative="1" as="geometry" />
        </mxCell>
        <mxCell id="mFdd-6OuLEnrnBaM5S1W-13" style="edgeStyle=orthogonalEdgeStyle;shape=connector;curved=0;rounded=1;orthogonalLoop=1;jettySize=auto;html=1;exitX=1;exitY=0.5;exitDx=0;exitDy=0;exitPerimeter=0;strokeColor=default;strokeWidth=2;align=center;verticalAlign=middle;fontFamily=Helvetica;fontSize=11;fontColor=default;labelBackgroundColor=default;endArrow=classic;" edge="1" parent="1" source="mFdd-6OuLEnrnBaM5S1W-4" target="mFdd-6OuLEnrnBaM5S1W-8">
          <mxGeometry relative="1" as="geometry" />
        </mxCell>
        <mxCell id="mFdd-6OuLEnrnBaM5S1W-14" style="edgeStyle=orthogonalEdgeStyle;shape=connector;curved=0;rounded=1;orthogonalLoop=1;jettySize=auto;html=1;exitX=1;exitY=0.5;exitDx=0;exitDy=0;exitPerimeter=0;entryX=0;entryY=0.5;entryDx=0;entryDy=0;entryPerimeter=0;strokeColor=default;strokeWidth=2;align=center;verticalAlign=middle;fontFamily=Helvetica;fontSize=11;fontColor=default;labelBackgroundColor=default;endArrow=classic;" edge="1" parent="1" source="mFdd-6OuLEnrnBaM5S1W-7" target="mFdd-6OuLEnrnBaM5S1W-11">
          <mxGeometry relative="1" as="geometry" />
        </mxCell>
        <mxCell id="mFdd-6OuLEnrnBaM5S1W-15" value="&#39;" style="rounded=1;whiteSpace=wrap;html=1;container=1;recursiveResize=0;verticalAlign=middle;arcSize=6;fontStyle=1;autosize=0;points=[];absoluteArcSize=1;shadow=1;strokeColor=#6c8ebf;fillColor=#dae8fc;fontFamily=Helvetica;fontSize=11;gradientColor=#E6E6E6;fontColor=default;" vertex="1" parent="1">
          <mxGeometry x="470" y="210" width="50" height="20" as="geometry">
            <mxRectangle x="-98" y="-1230" width="99" height="26" as="alternateBounds" />
          </mxGeometry>
        </mxCell>
        <mxCell id="mFdd-6OuLEnrnBaM5S1W-16" value="" style="rounded=1;whiteSpace=wrap;html=1;sketch=0;points=[[0,0.5,0,0,0],[1,0.5,0,0,0]];arcSize=50;fontFamily=Helvetica;fontSize=11;fontColor=default;" vertex="1" parent="mFdd-6OuLEnrnBaM5S1W-15">
          <mxGeometry x="40" y="3.75" width="20" height="12.5" as="geometry" />
        </mxCell>
        <mxCell id="mFdd-6OuLEnrnBaM5S1W-17" value="" style="rounded=1;whiteSpace=wrap;html=1;sketch=0;points=[[0,0.5,0,0,0],[1,0.5,0,0,0]];arcSize=50;fontFamily=Helvetica;fontSize=11;fontColor=default;" vertex="1" parent="mFdd-6OuLEnrnBaM5S1W-15">
          <mxGeometry x="-10" y="3.75" width="20" height="12.5" as="geometry" />
        </mxCell>
        <mxCell id="mFdd-6OuLEnrnBaM5S1W-18" style="edgeStyle=orthogonalEdgeStyle;shape=connector;curved=0;rounded=1;orthogonalLoop=1;jettySize=auto;html=1;exitX=1;exitY=0.5;exitDx=0;exitDy=0;exitPerimeter=0;entryX=0;entryY=0.5;entryDx=0;entryDy=0;entryPerimeter=0;strokeColor=default;strokeWidth=2;align=center;verticalAlign=middle;fontFamily=Helvetica;fontSize=11;fontColor=default;labelBackgroundColor=default;endArrow=classic;" edge="1" parent="1" source="mFdd-6OuLEnrnBaM5S1W-10" target="mFdd-6OuLEnrnBaM5S1W-17">
          <mxGeometry relative="1" as="geometry" />
        </mxCell>
        <mxCell id="mFdd-6OuLEnrnBaM5S1W-19" value="&#39;d" style="rounded=1;whiteSpace=wrap;html=1;container=1;recursiveResize=0;verticalAlign=middle;arcSize=6;fontStyle=1;autosize=0;points=[];absoluteArcSize=1;shadow=1;strokeColor=#6c8ebf;fillColor=#dae8fc;fontFamily=Helvetica;fontSize=11;gradientColor=#E6E6E6;fontColor=default;" vertex="1" parent="1">
          <mxGeometry x="570" y="210" width="50" height="20" as="geometry">
            <mxRectangle x="-98" y="-1230" width="99" height="26" as="alternateBounds" />
          </mxGeometry>
        </mxCell>
        <mxCell id="mFdd-6OuLEnrnBaM5S1W-20" value="" style="rounded=1;whiteSpace=wrap;html=1;sketch=0;points=[[0,0.5,0,0,0],[1,0.5,0,0,0]];arcSize=50;fontFamily=Helvetica;fontSize=11;fontColor=default;" vertex="1" parent="mFdd-6OuLEnrnBaM5S1W-19">
          <mxGeometry x="40" y="3.75" width="20" height="12.5" as="geometry" />
        </mxCell>
        <mxCell id="mFdd-6OuLEnrnBaM5S1W-21" value="" style="rounded=1;whiteSpace=wrap;html=1;sketch=0;points=[[0,0.5,0,0,0],[1,0.5,0,0,0]];arcSize=50;fontFamily=Helvetica;fontSize=11;fontColor=default;" vertex="1" parent="mFdd-6OuLEnrnBaM5S1W-19">
          <mxGeometry x="-10" y="3.75" width="20" height="12.5" as="geometry" />
        </mxCell>
        <mxCell id="mFdd-6OuLEnrnBaM5S1W-22" value="&#39;e" style="rounded=1;whiteSpace=wrap;html=1;container=1;recursiveResize=0;verticalAlign=middle;arcSize=6;fontStyle=1;autosize=0;points=[];absoluteArcSize=1;shadow=1;strokeColor=#6c8ebf;fillColor=#dae8fc;fontFamily=Helvetica;fontSize=11;gradientColor=#E6E6E6;fontColor=default;" vertex="1" parent="1">
          <mxGeometry x="670" y="210" width="50" height="20" as="geometry">
            <mxRectangle x="-98" y="-1230" width="99" height="26" as="alternateBounds" />
          </mxGeometry>
        </mxCell>
        <mxCell id="mFdd-6OuLEnrnBaM5S1W-23" value="" style="rounded=1;whiteSpace=wrap;html=1;sketch=0;points=[[0,0.5,0,0,0],[1,0.5,0,0,0]];arcSize=50;fontFamily=Helvetica;fontSize=11;fontColor=default;" vertex="1" parent="mFdd-6OuLEnrnBaM5S1W-22">
          <mxGeometry x="40" y="3.75" width="20" height="12.5" as="geometry" />
        </mxCell>
        <mxCell id="mFdd-6OuLEnrnBaM5S1W-24" value="" style="rounded=1;whiteSpace=wrap;html=1;sketch=0;points=[[0,0.5,0,0,0],[1,0.5,0,0,0]];arcSize=50;fontFamily=Helvetica;fontSize=11;fontColor=default;" vertex="1" parent="mFdd-6OuLEnrnBaM5S1W-22">
          <mxGeometry x="-10" y="3.75" width="20" height="12.5" as="geometry" />
        </mxCell>
        <mxCell id="mFdd-6OuLEnrnBaM5S1W-25" value="&#39;f" style="rounded=1;whiteSpace=wrap;html=1;container=1;recursiveResize=0;verticalAlign=middle;arcSize=6;fontStyle=1;autosize=0;points=[];absoluteArcSize=1;shadow=1;strokeColor=#6c8ebf;fillColor=#dae8fc;fontFamily=Helvetica;fontSize=11;gradientColor=#E6E6E6;fontColor=default;" vertex="1" parent="1">
          <mxGeometry x="770" y="210" width="50" height="20" as="geometry">
            <mxRectangle x="-98" y="-1230" width="99" height="26" as="alternateBounds" />
          </mxGeometry>
        </mxCell>
        <mxCell id="mFdd-6OuLEnrnBaM5S1W-26" value="" style="rounded=1;whiteSpace=wrap;html=1;sketch=0;points=[[0,0.5,0,0,0],[1,0.5,0,0,0]];arcSize=50;fontFamily=Helvetica;fontSize=11;fontColor=default;" vertex="1" parent="mFdd-6OuLEnrnBaM5S1W-25">
          <mxGeometry x="40" y="3.75" width="20" height="12.5" as="geometry" />
        </mxCell>
        <mxCell id="mFdd-6OuLEnrnBaM5S1W-27" value="" style="rounded=1;whiteSpace=wrap;html=1;sketch=0;points=[[0,0.5,0,0,0],[1,0.5,0,0,0]];arcSize=50;fontFamily=Helvetica;fontSize=11;fontColor=default;" vertex="1" parent="mFdd-6OuLEnrnBaM5S1W-25">
          <mxGeometry x="-10" y="3.75" width="20" height="12.5" as="geometry" />
        </mxCell>
        <mxCell id="mFdd-6OuLEnrnBaM5S1W-28" style="edgeStyle=orthogonalEdgeStyle;shape=connector;curved=0;rounded=1;orthogonalLoop=1;jettySize=auto;html=1;exitX=1;exitY=0.5;exitDx=0;exitDy=0;exitPerimeter=0;strokeColor=default;strokeWidth=2;align=center;verticalAlign=middle;fontFamily=Helvetica;fontSize=11;fontColor=default;labelBackgroundColor=default;endArrow=classic;" edge="1" parent="1" source="mFdd-6OuLEnrnBaM5S1W-20" target="mFdd-6OuLEnrnBaM5S1W-24">
          <mxGeometry relative="1" as="geometry" />
        </mxCell>
        <mxCell id="mFdd-6OuLEnrnBaM5S1W-29" style="edgeStyle=orthogonalEdgeStyle;shape=connector;curved=0;rounded=1;orthogonalLoop=1;jettySize=auto;html=1;exitX=1;exitY=0.5;exitDx=0;exitDy=0;exitPerimeter=0;entryX=0;entryY=0.5;entryDx=0;entryDy=0;entryPerimeter=0;strokeColor=default;strokeWidth=2;align=center;verticalAlign=middle;fontFamily=Helvetica;fontSize=11;fontColor=default;labelBackgroundColor=default;endArrow=classic;" edge="1" parent="1" source="mFdd-6OuLEnrnBaM5S1W-23" target="mFdd-6OuLEnrnBaM5S1W-27">
          <mxGeometry relative="1" as="geometry" />
        </mxCell>
        <mxCell id="mFdd-6OuLEnrnBaM5S1W-30" value="&#39;" style="rounded=1;whiteSpace=wrap;html=1;container=1;recursiveResize=0;verticalAlign=middle;arcSize=6;fontStyle=1;autosize=0;points=[];absoluteArcSize=1;shadow=1;strokeColor=#6c8ebf;fillColor=#dae8fc;fontFamily=Helvetica;fontSize=11;gradientColor=#E6E6E6;fontColor=default;" vertex="1" parent="1">
          <mxGeometry x="870" y="210" width="50" height="20" as="geometry">
            <mxRectangle x="-98" y="-1230" width="99" height="26" as="alternateBounds" />
          </mxGeometry>
        </mxCell>
        <mxCell id="mFdd-6OuLEnrnBaM5S1W-31" value="" style="rounded=1;whiteSpace=wrap;html=1;sketch=0;points=[[0,0.5,0,0,0],[1,0.5,0,0,0]];arcSize=50;fontFamily=Helvetica;fontSize=11;fontColor=default;" vertex="1" parent="mFdd-6OuLEnrnBaM5S1W-30">
          <mxGeometry x="40" y="3.75" width="20" height="12.5" as="geometry" />
        </mxCell>
        <mxCell id="mFdd-6OuLEnrnBaM5S1W-32" value="" style="rounded=1;whiteSpace=wrap;html=1;sketch=0;points=[[0,0.5,0,0,0],[1,0.5,0,0,0]];arcSize=50;fontFamily=Helvetica;fontSize=11;fontColor=default;" vertex="1" parent="mFdd-6OuLEnrnBaM5S1W-30">
          <mxGeometry x="-10" y="3.75" width="20" height="12.5" as="geometry" />
        </mxCell>
        <mxCell id="mFdd-6OuLEnrnBaM5S1W-33" style="edgeStyle=orthogonalEdgeStyle;shape=connector;curved=0;rounded=1;orthogonalLoop=1;jettySize=auto;html=1;exitX=1;exitY=0.5;exitDx=0;exitDy=0;exitPerimeter=0;entryX=0;entryY=0.5;entryDx=0;entryDy=0;entryPerimeter=0;strokeColor=default;strokeWidth=2;align=center;verticalAlign=middle;fontFamily=Helvetica;fontSize=11;fontColor=default;labelBackgroundColor=default;endArrow=classic;" edge="1" parent="1" source="mFdd-6OuLEnrnBaM5S1W-26" target="mFdd-6OuLEnrnBaM5S1W-32">
          <mxGeometry relative="1" as="geometry" />
        </mxCell>
        <mxCell id="mFdd-6OuLEnrnBaM5S1W-34" style="edgeStyle=orthogonalEdgeStyle;shape=connector;curved=0;rounded=1;orthogonalLoop=1;jettySize=auto;html=1;exitX=1;exitY=0.5;exitDx=0;exitDy=0;exitPerimeter=0;entryX=0;entryY=0.5;entryDx=0;entryDy=0;entryPerimeter=0;strokeColor=default;strokeWidth=2;align=center;verticalAlign=middle;fontFamily=Helvetica;fontSize=11;fontColor=default;labelBackgroundColor=default;endArrow=classic;" edge="1" parent="1" source="mFdd-6OuLEnrnBaM5S1W-16" target="mFdd-6OuLEnrnBaM5S1W-21">
          <mxGeometry relative="1" as="geometry" />
        </mxCell>
        <mxCell id="mFdd-6OuLEnrnBaM5S1W-35" value="c" style="rhombus;whiteSpace=wrap;html=1;rounded=1;fontStyle=1;glass=0;sketch=0;fontSize=12;points=[[0,0.5,0,0,0],[0.5,0,0,0,0],[0.5,1,0,0,0],[1,0.5,0,0,0]];shadow=1;fillColor=#0050ef;fontColor=#ffffff;strokeColor=#001DBC;fontFamily=Helvetica;labelBackgroundColor=none;" vertex="1" parent="1">
          <mxGeometry x="980" y="120" width="40" height="40" as="geometry" />
        </mxCell>
        <mxCell id="mFdd-6OuLEnrnBaM5S1W-36" value="rel" style="rhombus;whiteSpace=wrap;html=1;rounded=1;fontStyle=1;glass=0;sketch=0;fontSize=12;points=[[0,0.5,0,0,0],[0.5,0,0,0,0],[0.5,1,0,0,0],[1,0.5,0,0,0]];shadow=1;fillColor=#0050ef;fontColor=#ffffff;strokeColor=#001DBC;fontFamily=Helvetica;labelBackgroundColor=none;" vertex="1" parent="1">
          <mxGeometry x="980" y="280" width="40" height="40" as="geometry" />
        </mxCell>
        <mxCell id="mFdd-6OuLEnrnBaM5S1W-38" style="edgeStyle=orthogonalEdgeStyle;shape=connector;curved=0;rounded=1;orthogonalLoop=1;jettySize=auto;html=1;exitX=1;exitY=0.5;exitDx=0;exitDy=0;exitPerimeter=0;entryX=0;entryY=0.5;entryDx=0;entryDy=0;entryPerimeter=0;strokeColor=default;strokeWidth=2;align=center;verticalAlign=middle;fontFamily=Helvetica;fontSize=11;fontColor=default;labelBackgroundColor=default;endArrow=classic;" edge="1" parent="1" source="mFdd-6OuLEnrnBaM5S1W-31" target="mFdd-6OuLEnrnBaM5S1W-36">
          <mxGeometry relative="1" as="geometry" />
        </mxCell>
        <mxCell id="mFdd-6OuLEnrnBaM5S1W-39" style="edgeStyle=orthogonalEdgeStyle;shape=connector;curved=0;rounded=1;orthogonalLoop=1;jettySize=auto;html=1;exitX=1;exitY=0.5;exitDx=0;exitDy=0;exitPerimeter=0;entryX=0;entryY=0.5;entryDx=0;entryDy=0;entryPerimeter=0;strokeColor=default;strokeWidth=2;align=center;verticalAlign=middle;fontFamily=Helvetica;fontSize=11;fontColor=default;labelBackgroundColor=default;endArrow=classic;" edge="1" parent="1" source="mFdd-6OuLEnrnBaM5S1W-16" target="mFdd-6OuLEnrnBaM5S1W-36">
          <mxGeometry relative="1" as="geometry">
            <Array as="points">
              <mxPoint x="540" y="220" />
              <mxPoint x="540" y="300" />
            </Array>
          </mxGeometry>
        </mxCell>
        <mxCell id="mFdd-6OuLEnrnBaM5S1W-40" style="edgeStyle=orthogonalEdgeStyle;shape=connector;curved=0;rounded=1;orthogonalLoop=1;jettySize=auto;html=1;exitX=1;exitY=0.5;exitDx=0;exitDy=0;exitPerimeter=0;entryX=0;entryY=0.5;entryDx=0;entryDy=0;entryPerimeter=0;strokeColor=default;strokeWidth=2;align=center;verticalAlign=middle;fontFamily=Helvetica;fontSize=11;fontColor=default;labelBackgroundColor=default;endArrow=classic;" edge="1" parent="1" source="mFdd-6OuLEnrnBaM5S1W-26" target="mFdd-6OuLEnrnBaM5S1W-35">
          <mxGeometry relative="1" as="geometry">
            <Array as="points">
              <mxPoint x="840" y="220" />
              <mxPoint x="840" y="140" />
            </Array>
          </mxGeometry>
        </mxCell>
        <mxCell id="mFdd-6OuLEnrnBaM5S1W-41" style="edgeStyle=orthogonalEdgeStyle;shape=connector;curved=0;rounded=1;orthogonalLoop=1;jettySize=auto;html=1;exitX=1;exitY=0.5;exitDx=0;exitDy=0;exitPerimeter=0;strokeColor=default;strokeWidth=2;align=center;verticalAlign=middle;fontFamily=Helvetica;fontSize=11;fontColor=default;labelBackgroundColor=default;endArrow=classic;entryX=0;entryY=0.5;entryDx=0;entryDy=0;entryPerimeter=0;" edge="1" parent="1" source="mFdd-6OuLEnrnBaM5S1W-23" target="mFdd-6OuLEnrnBaM5S1W-35">
          <mxGeometry relative="1" as="geometry">
            <mxPoint x="820" y="130" as="targetPoint" />
            <Array as="points">
              <mxPoint x="740" y="220" />
              <mxPoint x="740" y="140" />
            </Array>
          </mxGeometry>
        </mxCell>
        <mxCell id="mFdd-6OuLEnrnBaM5S1W-42" style="edgeStyle=orthogonalEdgeStyle;shape=connector;curved=0;rounded=1;orthogonalLoop=1;jettySize=auto;html=1;exitX=1;exitY=0.5;exitDx=0;exitDy=0;exitPerimeter=0;entryX=0;entryY=0.5;entryDx=0;entryDy=0;entryPerimeter=0;strokeColor=default;strokeWidth=2;align=center;verticalAlign=middle;fontFamily=Helvetica;fontSize=11;fontColor=default;labelBackgroundColor=default;endArrow=classic;" edge="1" parent="1" source="mFdd-6OuLEnrnBaM5S1W-20" target="mFdd-6OuLEnrnBaM5S1W-35">
          <mxGeometry relative="1" as="geometry">
            <Array as="points">
              <mxPoint x="640" y="220" />
              <mxPoint x="640" y="140" />
            </Array>
          </mxGeometry>
        </mxCell>
        <mxCell id="mFdd-6OuLEnrnBaM5S1W-43" style="edgeStyle=orthogonalEdgeStyle;shape=connector;curved=0;rounded=1;orthogonalLoop=1;jettySize=auto;html=1;exitX=1;exitY=0.5;exitDx=0;exitDy=0;exitPerimeter=0;entryX=0;entryY=0.5;entryDx=0;entryDy=0;entryPerimeter=0;strokeColor=default;strokeWidth=2;align=center;verticalAlign=middle;fontFamily=Helvetica;fontSize=11;fontColor=default;labelBackgroundColor=default;endArrow=classic;" edge="1" parent="1" source="mFdd-6OuLEnrnBaM5S1W-10" target="mFdd-6OuLEnrnBaM5S1W-35">
          <mxGeometry relative="1" as="geometry">
            <Array as="points">
              <mxPoint x="440" y="220" />
              <mxPoint x="440" y="140" />
            </Array>
          </mxGeometry>
        </mxCell>
        <mxCell id="mFdd-6OuLEnrnBaM5S1W-44" style="edgeStyle=orthogonalEdgeStyle;shape=connector;curved=0;rounded=1;orthogonalLoop=1;jettySize=auto;html=1;exitX=1;exitY=0.5;exitDx=0;exitDy=0;exitPerimeter=0;entryX=0;entryY=0.5;entryDx=0;entryDy=0;entryPerimeter=0;strokeColor=default;strokeWidth=2;align=center;verticalAlign=middle;fontFamily=Helvetica;fontSize=11;fontColor=default;labelBackgroundColor=default;endArrow=classic;" edge="1" parent="1" source="mFdd-6OuLEnrnBaM5S1W-7" target="mFdd-6OuLEnrnBaM5S1W-35">
          <mxGeometry relative="1" as="geometry">
            <Array as="points">
              <mxPoint x="340" y="220" />
              <mxPoint x="340" y="140" />
            </Array>
          </mxGeometry>
        </mxCell>
        <mxCell id="mFdd-6OuLEnrnBaM5S1W-45" style="edgeStyle=orthogonalEdgeStyle;shape=connector;curved=0;rounded=1;orthogonalLoop=1;jettySize=auto;html=1;exitX=1;exitY=0.5;exitDx=0;exitDy=0;exitPerimeter=0;entryX=0;entryY=0.5;entryDx=0;entryDy=0;entryPerimeter=0;strokeColor=default;strokeWidth=2;align=center;verticalAlign=middle;fontFamily=Helvetica;fontSize=11;fontColor=default;labelBackgroundColor=default;endArrow=classic;" edge="1" parent="1" source="mFdd-6OuLEnrnBaM5S1W-4" target="mFdd-6OuLEnrnBaM5S1W-35">
          <mxGeometry relative="1" as="geometry">
            <Array as="points">
              <mxPoint x="240" y="220" />
              <mxPoint x="240" y="140" />
            </Array>
          </mxGeometry>
        </mxCell>
      </root>
    </mxGraphModel>
  </diagram>
</mxfile>
